<svg xmlns="http://www.w3.org/2000/svg" viewBox="0 0 64 64" width="64" height="64" fill="none">
  <path d="M22 28 Q22 14 32 14 Q42 14 42 28 Q42 36 37 41 L27 41 Q22 36 22 28 Z" fill="#fff8dc" stroke="#F39C12" stroke-width="2.5"/>
  <path d="M27 41 L28 44 Q28 46 30 46 L34 46 Q36 46 36 44 L37 41" stroke="#F39C12" stroke-width="2" fill="none"/>
  <!-- Question mark -->
  <path d="M29 24 Q29 20 32 20 Q35 20 35 24 Q35 27 32 28 L32 32" stroke="#F39C12" stroke-width="2.5" stroke-linecap="round" fill="none"/>
  <circle cx="32" cy="36" r="1.5" fill="#F39C12"/>
  <!-- Glow -->
  <line x1="32" y1="10" x2="32" y2="6" stroke="#F39C12" stroke-width="2" stroke-linecap="round" opacity="0.5"/>
  <line x1="18" y1="18" x2="15" y2="14" stroke="#F39C12" stroke-width="2" stroke-linecap="round" opacity="0.4"/>
  <line x1="46" y1="18" x2="49" y2="14" stroke="#F39C12" stroke-width="2" stroke-linecap="round" opacity="0.4"/>
</svg>
