<svg xmlns="http://www.w3.org/2000/svg" viewBox="0 0 64 64" width="64" height="64" fill="none">
  <!-- Two hands clapping -->
  <!-- Left hand -->
  <path d="M10 32 Q8 24 14 20 Q18 18 20 22 L24 34 Q26 40 24 46 L18 48 Q12 46 10 40 Z" fill="#f5cba7" stroke="#d4956b" stroke-width="2"/>
  <path d="M14 20 Q14 14 18 12 Q22 10 22 16 L22 22" stroke="#d4956b" stroke-width="2" fill="none"/>
  <path d="M18 18 Q18 12 22 10 Q26 8 26 14 L26 20" stroke="#d4956b" stroke-width="2" fill="none"/>
  <!-- Right hand -->
  <path d="M54 32 Q56 24 50 20 Q46 18 44 22 L40 34 Q38 40 40 46 L46 48 Q52 46 54 40 Z" fill="#f5cba7" stroke="#d4956b" stroke-width="2"/>
  <path d="M50 20 Q50 14 46 12 Q42 10 42 16 L42 22" stroke="#d4956b" stroke-width="2" fill="none"/>
  <!-- Motion lines -->
  <line x1="26" y1="28" x2="38" y2="28" stroke="#F39C12" stroke-width="2" stroke-dasharray="3 2"/>
</svg>
