<svg xmlns="http://www.w3.org/2000/svg" viewBox="0 0 64 64" width="64" height="64" fill="none">
  <!-- Outer flame -->
  <path d="M32 8 C28 14 20 18 20 28 C20 40 26 54 32 54 C38 54 44 40 44 28 C44 18 36 14 32 8 Z" fill="#F39C12" stroke="#e67e22" stroke-width="2" stroke-linejoin="round"/>
  <!-- Inner flame -->
  <path d="M32 20 C30 24 26 28 26 34 C26 42 29 50 32 50 C35 50 38 42 38 34 C38 28 34 24 32 20 Z" fill="#e74c3c" stroke="none"/>
  <!-- Core -->
  <path d="M32 34 C31 36 30 40 32 44 C34 40 33 36 32 34 Z" fill="#fff"/>
</svg>
