<svg xmlns="http://www.w3.org/2000/svg" viewBox="0 0 64 64" width="64" height="64" fill="none">
  <!-- Kettle with water pouring out of spout -->
  <!-- Body -->
  <path d="M18 22 Q16 22 14 26 L12 38 Q12 44 18 44 L40 44 Q46 44 46 38 L44 26 Q42 22 40 22 Z" fill="#e8f4f8" stroke="#1A56A0" stroke-width="2.5" stroke-linejoin="round"/>
  <!-- Lid -->
  <rect x="20" y="17" width="18" height="6" rx="3" fill="#1A56A0" stroke="#1A56A0" stroke-width="2"/>
  <!-- Spout -->
  <path d="M40 30 Q50 28 52 24 Q54 20 50 18" stroke="#1A56A0" stroke-width="2.5" stroke-linecap="round" fill="none"/>
  <!-- Water drops from spout -->
  <circle cx="52" cy="16" r="2" fill="#1A56A0"/>
  <circle cx="50" cy="12" r="1.5" fill="#1A56A0"/>
  <circle cx="54" cy="10" r="1.5" fill="#1A56A0"/>
  <!-- Handle -->
  <path d="M18 28 Q8 28 8 34 Q8 40 18 40" stroke="#F39C12" stroke-width="2.5" stroke-linecap="round" fill="none"/>
</svg>
