<svg xmlns="http://www.w3.org/2000/svg" viewBox="0 0 64 64" width="64" height="64" fill="none">
  <!-- Soil pot base -->
  <rect x="18" y="50" width="28" height="10" rx="3" fill="#795548" stroke="#5d4037" stroke-width="2"/>
  <!-- Stem growing up -->
  <path d="M32 50 Q30 40 32 30 Q34 20 32 12" stroke="#27ae60" stroke-width="3" stroke-linecap="round" fill="none"/>
  <!-- Leaves along stem -->
  <path d="M32 40 Q24 34 22 26 Q30 30 32 38" fill="#27ae60" stroke="#1e8449" stroke-width="1.5"/>
  <path d="M32 32 Q40 26 42 18 Q34 22 32 30" fill="#27ae60" stroke="#1e8449" stroke-width="1.5"/>
  <!-- Top flower/leaves -->
  <circle cx="32" cy="12" r="8" fill="#2ecc71" stroke="#27ae60" stroke-width="1.5"/>
  <path d="M24 10 Q28 6 32 10" fill="#27ae60" stroke="#1e8449" stroke-width="1"/>
  <path d="M40 10 Q36 6 32 10" fill="#27ae60" stroke="#1e8449" stroke-width="1"/>
  <!-- Growth arrow -->
  <path d="M50 20 L54 14 L58 20" stroke="#27ae60" stroke-width="2.5" stroke-linecap="round" stroke-linejoin="round" fill="none"/>
  <line x1="54" y1="14" x2="54" y2="36" stroke="#27ae60" stroke-width="2.5" stroke-linecap="round" stroke-dasharray="3 2"/>
</svg>
