<svg xmlns="http://www.w3.org/2000/svg" viewBox="0 0 64 64" width="64" height="64" fill="none">
  <!-- Sun (top left) -->
  <circle cx="12" cy="10" r="7" fill="#f1c40f" stroke="#F39C12" stroke-width="1.5"/>
  <line x1="12" y1="1" x2="12" y2="5" stroke="#F39C12" stroke-width="2" stroke-linecap="round"/>
  <line x1="3" y1="10" x2="7" y2="10" stroke="#F39C12" stroke-width="2" stroke-linecap="round"/>
  <line x1="5" y1="4" x2="8" y2="7" stroke="#F39C12" stroke-width="2" stroke-linecap="round"/>
  <line x1="19" y1="4" x2="16" y2="7" stroke="#F39C12" stroke-width="2" stroke-linecap="round"/>
  <!-- Person walking -->
  <circle cx="14" cy="34" r="5" fill="#f5cba7" stroke="#d4956b" stroke-width="1.5"/>
  <path d="M14 39 L14 52" stroke="#555" stroke-width="2.5" stroke-linecap="round"/>
  <path d="M8 42 L14 40 L20 42" stroke="#555" stroke-width="2.5" stroke-linecap="round"/>
  <path d="M14 52 L10 60" stroke="#555" stroke-width="2.5" stroke-linecap="round"/>
  <path d="M14 52 L18 60" stroke="#555" stroke-width="2.5" stroke-linecap="round"/>
  <!-- Long road to school (far) -->
  <path d="M22 56 Q42 52 60 54" stroke="#bdc3c7" stroke-width="3" stroke-dasharray="4 3" stroke-linecap="round" fill="none"/>
  <!-- School building (small, far) -->
  <path d="M50 40 L62 40 L62 56 L50 56 Z" fill="#3498db" stroke="#2980b9" stroke-width="1.5"/>
  <path d="M49 40 L56 30 L63 40 Z" fill="#e74c3c" stroke="#c0392b" stroke-width="1.5"/>
  <!-- Long arrow (far) -->
  <path d="M22 46 L46 46" stroke="#3498db" stroke-width="2" stroke-linecap="round" stroke-dasharray="4 2"/>
  <path d="M44 44 L46 46 L44 48" stroke="#3498db" stroke-width="2" stroke-linecap="round" stroke-linejoin="round" fill="none"/>
</svg>
