<svg xmlns="http://www.w3.org/2000/svg" viewBox="0 0 64 64" width="64" height="64" fill="none">
  <!-- Switch ON (left side, small) -->
  <rect x="2" y="20" width="26" height="18" rx="4" fill="#f0f0f0" stroke="#555" stroke-width="1.5"/>
  <rect x="5" y="25" width="20" height="8" rx="4" fill="#1E8449" stroke="#145a32" stroke-width="1.5"/>
  <circle cx="20" cy="29" r="4" fill="#fff" stroke="#145a32" stroke-width="1.5"/>
  <text x="7" y="32" font-size="6" fill="#fff" font-weight="bold">ON</text>
  <!-- Lit bulb (right side) — glowing -->
  <path d="M38 26 Q38 18 46 18 Q54 18 54 26 Q54 32 50 36 L42 36 Q38 32 38 26 Z" fill="#fffacd" stroke="#F39C12" stroke-width="1.5"/>
  <path d="M42 31 Q44 29 46 31 Q48 29 50 31" stroke="#F39C12" stroke-width="1.5" stroke-linecap="round" fill="none"/>
  <rect x="42" y="36" width="8" height="4" rx="1" fill="#888" stroke="#555" stroke-width="1.5"/>
  <rect x="43" y="40" width="6" height="3" rx="1" fill="#888" stroke="#555" stroke-width="1"/>
  <!-- Glow rays -->
  <line x1="46" y1="14" x2="46" y2="11" stroke="#F39C12" stroke-width="2" stroke-linecap="round"/>
  <line x1="36" y1="20" x2="33" y2="17" stroke="#F39C12" stroke-width="2" stroke-linecap="round"/>
  <line x1="56" y1="20" x2="59" y2="17" stroke="#F39C12" stroke-width="2" stroke-linecap="round"/>
  <!-- Check mark showing bulb IS ON -->
  <path d="M40 48 L44 53 L54 44" stroke="#27ae60" stroke-width="3" stroke-linecap="round" stroke-linejoin="round" fill="none"/>
</svg>
