<svg xmlns="http://www.w3.org/2000/svg" viewBox="0 0 64 64" width="64" height="64" fill="none">
  <!-- Switch ON (left side, small) -->
  <rect x="2" y="20" width="26" height="18" rx="4" fill="#f0f0f0" stroke="#555" stroke-width="1.5"/>
  <rect x="5" y="25" width="20" height="8" rx="4" fill="#1E8449" stroke="#145a32" stroke-width="1.5"/>
  <circle cx="20" cy="29" r="4" fill="#fff" stroke="#145a32" stroke-width="1.5"/>
  <text x="7" y="32" font-size="6" fill="#fff" font-weight="bold">ON</text>
  <!-- Broken bulb (right side, small) -->
  <path d="M38 26 Q38 18 46 18 Q54 18 54 26 Q54 32 50 36 L42 36 Q38 32 38 26 Z" fill="#e8e8e8" stroke="#999" stroke-width="1.5"/>
  <path d="M46 20 L43 26 L47 26 L43 34" stroke="#888" stroke-width="1.5" stroke-linecap="round" fill="none"/>
  <rect x="42" y="36" width="8" height="4" rx="1" fill="#888" stroke="#555" stroke-width="1.5"/>
  <rect x="43" y="40" width="6" height="3" rx="1" fill="#888" stroke="#555" stroke-width="1"/>
  <!-- X mark showing bulb is OFF -->
  <line x1="40" y1="44" x2="52" y2="52" stroke="#e74c3c" stroke-width="2.5" stroke-linecap="round"/>
  <line x1="52" y1="44" x2="40" y2="52" stroke="#e74c3c" stroke-width="2.5" stroke-linecap="round"/>
</svg>
